<svg width="160" height="150" viewBox="0 0 160 150" fill="none" xmlns="http://www.w3.org/2000/svg">
<g clip-path="url(#clip0_14_42)">
<rect width="160" height="150" rx="32" fill="#D0253C"/>
<g filter="url(#filter0_dd_14_42)">
<rect x="20" y="20" width="120" height="110" rx="12" fill="#D0253C" shape-rendering="crispEdges"/>
<path fill-rule="evenodd" clip-rule="evenodd" d="M109.914 98.1742L93.3965 93.7483L78.5031 113.215L50.0857 105.601L69.3186 83.5015C67.7599 82.1 66.3733 80.5534 65.1588 78.8615C60.8527 72.863 59.0772 65.5298 59.8323 56.8621C60.5981 48.5534 63.5119 42.7973 68.5738 39.5939C73.6024 36.3816 80.4042 35.9243 88.9793 38.2219L109.914 43.8314V63.1213L93.7789 58.7978C91.5188 58.1922 89.7275 58.4959 88.405 59.709C87.0914 60.8888 86.3321 62.8584 86.1271 65.6176C85.8824 68.2594 86.2997 70.4908 87.3792 72.3118C88.4676 74.0996 90.1418 75.2963 92.4019 75.9019L109.914 80.5943V98.1742Z" fill="white"/>
</g>
</g>
<defs>
<filter id="filter0_dd_14_42" x="-6" y="-6" width="172" height="162" filterUnits="userSpaceOnUse" color-interpolation-filters="sRGB">
<feFlood flood-opacity="0" result="BackgroundImageFix"/>
<feColorMatrix in="SourceAlpha" type="matrix" values="0 0 0 0 0 0 0 0 0 0 0 0 0 0 0 0 0 0 127 0" result="hardAlpha"/>
<feOffset dx="10" dy="10"/>
<feGaussianBlur stdDeviation="8"/>
<feComposite in2="hardAlpha" operator="out"/>
<feColorMatrix type="matrix" values="0 0 0 0 0.620833 0 0 0 0 0 0 0 0 0 0.0966568 0 0 0 1 0"/>
<feBlend mode="normal" in2="BackgroundImageFix" result="effect1_dropShadow_14_42"/>
<feColorMatrix in="SourceAlpha" type="matrix" values="0 0 0 0 0 0 0 0 0 0 0 0 0 0 0 0 0 0 127 0" result="hardAlpha"/>
<feOffset dx="-10" dy="-10"/>
<feGaussianBlur stdDeviation="8"/>
<feComposite in2="hardAlpha" operator="out"/>
<feColorMatrix type="matrix" values="0 0 0 0 0.916667 0 0 0 0 0.179514 0 0 0 0 0.306336 0 0 0 1 0"/>
<feBlend mode="normal" in2="effect1_dropShadow_14_42" result="effect2_dropShadow_14_42"/>
<feBlend mode="normal" in="SourceGraphic" in2="effect2_dropShadow_14_42" result="shape"/>
</filter>
<clipPath id="clip0_14_42">
<rect width="160" height="150" rx="32" fill="white"/>
</clipPath>
</defs>
</svg>
